HIERARCHY
ROOT SpineBase
{
  OFFSET 0.000000 0.000000 0.000000
  CHANNELS 6 Xposition Yposition Zposition Zrotation Xrotation Yrotation
  JOINT SpineMid
  {
    OFFSET 0.000000 31.308284 0.000000
    CHANNELS 3 Zrotation Xrotation Yrotation
    JOINT SpineShoulder
    {
      OFFSET -0.185532 23.215890 -0.777662
      CHANNELS 3 Zrotation Xrotation Yrotation
      JOINT Neck
      {
        OFFSET -0.143642 7.671451 -0.619704
        CHANNELS 3 Zrotation Xrotation Yrotation
        JOINT Head
        {
          OFFSET -1.256013 11.475523 0.826766
          CHANNELS 3 Zrotation Xrotation Yrotation
          End Site
          {
            OFFSET 0 0 0
          }
        }
      }
      JOINT ShoulderLeft
      {
        OFFSET -16.510963 -3.353872 5.679784
        CHANNELS 3 Zrotation Xrotation Yrotation
        JOINT ElbowLeft
        {
          OFFSET -3.321602 -28.960993 1.970391
          CHANNELS 3 Zrotation Xrotation Yrotation
          JOINT WristLeft
          {
            OFFSET -4.083895 -22.539062 -4.742579
            CHANNELS 3 Zrotation Xrotation Yrotation
            JOINT HandLeft
            {
              OFFSET -0.718982 -5.423853 -2.149235
              CHANNELS 3 Zrotation Xrotation Yrotation
              JOINT HandTipLeft
              {
                OFFSET -0.138734 -5.729517 -1.157580
                CHANNELS 3 Zrotation Xrotation Yrotation
                End Site
                {
                  OFFSET 0 0 0
                }
              }
              JOINT ThumbLeft
              {
                OFFSET 5.283790 2.076742 -0.438610
                CHANNELS 3 Zrotation Xrotation Yrotation
                End Site
                {
                  OFFSET 0 0 0
                }
              }
            }
          }
        }
      }
      JOINT ShoulderRight
      {
        OFFSET 14.434914 -2.965112 -8.636035
        CHANNELS 3 Zrotation Xrotation Yrotation
        JOINT ElbowRight
        {
          OFFSET 7.121429 -27.010513 -0.816104
          CHANNELS 3 Zrotation Xrotation Yrotation
          JOINT WristRight
          {
            OFFSET 0.315957 -23.015147 -7.051016
            CHANNELS 3 Zrotation Xrotation Yrotation
            JOINT HandRight
            {
              OFFSET -0.332622 -6.381366 -1.079847
              CHANNELS 3 Zrotation Xrotation Yrotation
              JOINT HandTipRight
              {
                OFFSET -0.414522 -7.111931 -0.840402
                CHANNELS 3 Zrotation Xrotation Yrotation
                End Site
                {
                  OFFSET 0 0 0
                }
              }
              JOINT ThumbRight
              {
                OFFSET 1.565435 -1.466612 -4.009973
                CHANNELS 3 Zrotation Xrotation Yrotation
                End Site
                {
                  OFFSET 0 0 0
                }
              }
            }
          }
        }
      }
    }
  }
  JOINT HipLeft
  {
    OFFSET -6.278813 0.681884 -1.262778
    CHANNELS 3 Zrotation Xrotation Yrotation
    JOINT KneeLeft
    {
      OFFSET -2.901947 -32.747411 2.689761
      CHANNELS 3 Zrotation Xrotation Yrotation
      JOINT AnkleLeft
      {
        OFFSET 2.330889 -35.677234 6.215124
        CHANNELS 3 Zrotation Xrotation Yrotation
        JOINT FootLeft
        {
          OFFSET -3.550672 -5.932827 -9.788558
          CHANNELS 3 Zrotation Xrotation Yrotation
          End Site
          {
            OFFSET 0 0 0
          }
        }
      }
    }
  }
  JOINT HipRight
  {
    OFFSET 4.603372 1.070526 -6.520287
    CHANNELS 3 Zrotation Xrotation Yrotation
    JOINT KneeRight
    {
      OFFSET 8.421573 -34.802101 -0.639077
      CHANNELS 3 Zrotation Xrotation Yrotation
      JOINT AnkleRight
      {
        OFFSET 4.746692 -35.450408 6.179571
        CHANNELS 3 Zrotation Xrotation Yrotation
        JOINT FootRight
        {
          OFFSET -1.574812 -8.404698 -7.427520
          CHANNELS 3 Zrotation Xrotation Yrotation
          End Site
          {
            OFFSET 0 0 0
          }
        }
      }
    }
  }
}
MOTION
Frames: 5
Frame Time: 0.033333
79.964017 95.013091 373.072274 -0.000000 0.000000 25.786577 -0.000000 0.000000 -25.786577 -0.000000 0.000000 0.000000 -0.000000 0.000000 0.000000 0.000000 0.000000 0.000000 -0.000000 0.000000 0.000000 -0.000000 0.000000 0.000000 -0.000000 0.000000 0.000000 -0.000000 0.000000 0.000000 0.000000 0.000000 0.000000 0.000000 0.000000 0.000000 -0.000000 0.000000 0.000000 -0.000000 0.000000 0.000000 -0.000000 0.000000 0.000000 -0.000000 0.000000 0.000000 0.000000 0.000000 0.000000 0.000000 0.000000 0.000000 -0.000000 0.000000 -25.786577 -0.000000 0.000000 0.000000 -0.000000 0.000000 0.000000 0.000000 0.000000 0.000000 -0.000000 0.000000 -25.786577 -0.000000 0.000000 0.000000 -0.000000 0.000000 0.000000 0.000000 0.000000 0.000000
79.976999 95.021630 373.071412 0.002196 -0.017429 25.858390 0.005625 0.016642 -25.858390 -0.000000 0.000000 0.000000 -0.000000 0.000000 0.000000 0.000000 0.000000 0.000000 -0.000000 0.000000 0.000000 -0.000000 0.000000 0.000000 -0.000000 0.000000 0.000000 -1.024915 4.109140 0.143236 0.000000 0.000000 0.000000 0.000000 0.000000 0.000000 -0.000000 0.000000 0.000000 -0.000000 0.000000 0.000000 -0.604607 0.986213 0.056012 -0.253569 -0.603958 0.021497 0.000000 0.000000 0.000000 0.000000 0.000000 0.000000 0.005625 0.016642 -25.858390 -0.000000 0.000000 0.000000 -0.252655 0.903907 -0.120406 0.000000 0.000000 0.000000 0.005625 0.016642 -25.858390 -0.000000 0.000000 0.000000 -3.848308 8.453576 1.959322 0.000000 0.000000 0.000000
79.988269 95.029118 373.073266 0.002985 -0.031561 25.924663 0.011114 0.029690 -25.924665 -0.000000 0.000000 0.000000 -0.000000 0.000000 0.000000 0.000000 0.000000 0.000000 -0.000000 0.000000 0.000000 -0.000000 0.000000 0.000000 -0.457159 1.202504 0.026418 -1.411112 6.031939 0.261221 0.000000 0.000000 0.000000 0.000000 0.000000 0.000000 -0.000000 0.000000 0.000000 -0.000000 0.000000 0.000000 -1.127985 1.804327 0.114226 -0.427210 -1.047880 0.021874 0.000000 0.000000 0.000000 0.000000 0.000000 0.000000 0.011114 0.029690 -25.924665 -0.000000 0.000000 0.000000 -0.462582 1.625453 -0.197974 0.000000 0.000000 0.000000 0.011114 0.029690 -25.924665 -0.000000 0.000000 0.000000 -6.787559 14.259698 3.716143 0.000000 0.000000 0.000000
79.997829 95.035553 373.077837 0.002365 -0.042397 25.985399 0.016450 0.039147 -25.985404 -0.000000 0.000000 0.000000 -0.000000 0.000000 0.000000 0.000000 0.000000 0.000000 -0.000000 0.000000 0.000000 -0.000000 0.000000 0.000000 -0.478383 1.374322 0.013044 -2.079009 8.103350 0.429251 0.000000 0.000000 0.000000 0.000000 0.000000 0.000000 -0.000000 0.000000 0.000000 -0.000000 0.000000 0.000000 -1.576493 2.466956 0.171381 -0.527341 -1.339174 0.008753 0.000000 0.000000 0.000000 0.000000 0.000000 0.000000 0.016450 0.039147 -25.985404 -0.000000 0.000000 0.000000 -0.631260 2.166371 -0.235112 0.000000 0.000000 0.000000 0.016450 0.039147 -25.985404 -0.000000 0.000000 0.000000 -8.783732 17.842693 5.016891 0.000000 0.000000 0.000000
80.005678 95.040937 373.085125 0.000336 -0.049936 26.040603 0.021620 0.045014 -26.040612 -0.000000 0.000000 0.000000 -0.000000 0.000000 0.000000 0.000000 0.000000 0.000000 -0.000000 0.000000 0.000000 -0.653556 0.490203 0.051395 0.314627 0.719531 -0.070887 -2.769593 9.714671 0.612439 0.000000 0.000000 0.000000 0.000000 0.000000 0.000000 -0.000000 0.000000 0.000000 -0.000000 0.000000 0.000000 -1.955501 2.984831 0.225083 -0.557320 -1.483660 -0.012829 0.000000 0.000000 0.000000 0.000000 0.000000 0.000000 0.021620 0.045014 -26.040612 -0.000000 0.000000 0.000000 -0.759962 2.529477 -0.233977 0.000000 0.000000 0.000000 0.021620 0.045014 -26.040612 -0.000000 0.000000 0.000000 -9.843136 19.589059 5.742598 0.000000 0.000000 0.000000
